<svg xmlns="http://www.w3.org/2000/svg" width="256" height="256"><path fill="#1976D2" fill-opacity=".016" fill-rule="evenodd" d="M0 128.004v128.004l128.25-.254 128.25-.254.254-127.75L257.008 0H0zm.485.496c0 70.4.119 99.053.265 63.672s.146-92.98 0-128S.485 58.1.485 128.5"/><path fill="#1976D2" fill-opacity=".546" fill-rule="evenodd" d="M0 39.99v39.99l10.369-7.88C49.882 42.071 94.931 28.124 160.5 25.618c11.998-.459 12.306-.428 4 .396-25.636 2.545-47.364 5.786-62 9.249l-9 2.129 15.181 1.253c43.68 3.606 98.02 17.477 136.569 34.86L257 78.804V0H0zm.456.51c0 22 .132 30.858.293 19.683.161-11.174.161-29.174 0-40C.587 9.358.455 18.5.456 40.5m111.057 31.278A22477 22477 0 0 1 82.136 123.5c-8.465 14.85-15.606 27.563-15.87 28.25-.381.992 12.069 1.25 60.21 1.25 33.38 0 60.541-.344 60.357-.766-.338-.776-48.864-86.078-56.025-98.484-2.143-3.712-4.214-6.737-4.602-6.722-.388.016-7 11.154-14.693 24.75m-11.636 29.336c-14.507 25.408-26.527 46.577-26.71 47.041-.184.465 23.554.845 52.75.845s53.083-.361 53.083-.803c0-.441-4.194-8.204-9.32-17.25-5.125-9.046-16.448-29.047-25.162-44.447s-16.387-28.806-17.053-29.791c-1.051-1.555-4.688 4.299-27.588 44.405m23.836-34.864c-1.362 2.338-11.121 19.775-21.687 38.75-10.565 18.975-19.879 35.552-20.698 36.837s-1.297 2.527-1.065 2.76c.233.233 21.404.306 47.046.163l46.622-.26-23.215-41.229c-12.769-22.677-23.511-41.239-23.871-41.25s-1.77 1.892-3.132 4.229m-1.382 5.999C110.1 94.05 110.248 93.737 113.409 91.25c3.703-2.913 9.575-2.949 14.661-.091 3.187 1.792 4.106 1.94 5.392.873.853-.708 2.882-1.567 4.511-1.91l2.96-.622-6.569-11.5c-3.613-6.325-6.883-11.838-7.267-12.251s-2.529 2.512-4.766 6.5M114 93c-4.444 4.444-.637 10 6.85 10 2.271 0 3.718-.929 6.066-3.894 1.696-2.142 3.084-4.155 3.084-4.474s-1.328-1.267-2.95-2.106c-4.26-2.203-10.604-1.972-13.05.474m27-.135c0 2.831-3.367 6.521-8.374 9.178-2.476 1.313-4.944 3.36-5.486 4.549s-2.383 3.754-4.091 5.699l-3.106 3.538 3.237.711c2.347.515 3.361.333 3.689-.665.977-2.969 6.908-7.742 10.445-8.406 9.949-1.866 8.767 4.893-1.814 10.371-3.202 1.659-3.551 2.08-1.75 2.116 3.069.06 2.872 2.044-.203 2.044-5.828 0-10.547 4.852-10.547 10.845 0 4.415 1.666 4.75 2.464.496.768-4.093 5.408-9.341 8.259-9.341 6.593 0 5.063 9.646-2.146 13.528-2.033 1.095-3.577 2.692-3.577 3.699 0 1.642 1.588 1.773 21.542 1.773h21.542l-2.431-4.25c-4.111-7.184-19.134-33.865-23.086-41-2.057-3.713-3.925-6.75-4.153-6.75s-.414.839-.414 1.865m-5.883.885c-1.501 1.247-1.837 2.17-1.172 3.21.799 1.251 1.229 1.192 2.994-.405 2.099-1.9 2.782-4.555 1.172-4.555-.489 0-1.837.787-2.994 1.75M100.5 111.273c-4.95 8.896-10.939 19.674-13.309 23.951L82.882 143h21.559c18.41 0 21.559-.217 21.559-1.487 0-.817-1.532-2.126-3.404-2.908-7.534-3.149-5.498-11.987 3.904-16.943l3-1.582-3.185-.04c-1.752-.022-4.382-.495-5.845-1.052-1.859-.706-3.838-.658-6.568.16-2.935.879-4.53.887-6.405.033-5.787-2.637-.44-7.42 6.063-5.424 3.459 1.062 3.61.991 6.565-3.085l3.025-4.172-4.669-.681c-5.736-.836-8.279-2.997-8.677-7.375-.277-3.05-1.097-1.92-9.304 12.829m30.158-11.824q-.56 1.452.893.893c1.582-.607 1.994-2.342.556-2.342-.491 0-1.143.652-1.449 1.449m3.581 12.971c-2.053 1.881-3.459 3.694-3.124 4.028 1.489 1.49 10.885-4.226 10.885-6.622 0-1.992-4.34-.541-7.761 2.594M107.5 117c.34.55 1.69 1 3 1s2.66-.45 3-1c.369-.596-.843-1-3-1s-3.369.404-3 1m23.511 11.219c-2.312 2.482-4.141 8.095-2.811 8.625 2.83 1.127 8.67-6.135 7.463-9.28-.827-2.155-2.217-1.959-4.652.655M72.4 155.428c-3.014 1.312-4.4 3.25-4.4 6.154 0 2.268 3.778 5.418 6.5 5.418 2.885 0 3.083.722 1.009 3.684-1.212 1.73-2.202 2.033-5.291 1.618-2.683-.359-4.175-.058-5.074 1.025-1.055 1.27-.962 1.69.541 2.446 2.521 1.267 15.353.866 17.965-.561 1.721-.941 2.257-.895 2.689.228.555 1.447 5.476 1.485 8.911.068 1.048-.432 1.75-.278 1.75.385 0 1.612 2.55 1.355 4.009-.404 1.111-1.338 1.403-1.309 2.553.25 1.204 1.633 1.571 1.507 5.056-1.739 3.344-3.115 3.572-3.202 2.069-.785-2.008 3.231-2.077 3.785-.475 3.785.667 0 2.242-1.238 3.499-2.75s2.067-2.075 1.798-1.25c-.879 2.702.954 4.358 3.384 3.057 1.182-.632 2.702-.805 3.378-.383s3.843.824 7.038.894c4.352.095 6.422-.355 8.25-1.793 2.193-1.725 2.284-2.075.906-3.453-1.127-1.127-1.247-1.88-.451-2.839.654-.788.711-1.535.143-1.886-.516-.319-2.563 1.217-4.548 3.414-3.594 3.978-4.917 4.297-2.028.489 1.421-1.872 1.339-2.037-1.282-2.573-3.133-.641-5.659.308-9.185 3.448l-2.385 2.125 1.114-2.145c1.385-2.664-.694-5.104-2.667-3.131-.901.901-1.458.894-2.382-.03-.941-.941-2.183-.272-5.658 3.05l-4.452 4.256 2.24-3.75c2.169-3.632 2.178-3.75.276-3.75-1.079 0-3.186 1.605-4.682 3.566s-2.933 3.352-3.194 3.091c-.683-.682 4.788-8.706 5.596-8.207.371.23 1.329.005 2.128-.501 1.21-.765 1.166-.921-.267-.934-1.114-.01-1.516-.543-1.143-1.515.849-2.212-1.89-1.854-3.916.511-.947 1.107-1.722 2.373-1.722 2.813 0 .441-1.437 2.124-3.192 3.739-3.17 2.916-3.181 2.919-1.547.294 1.63-2.619 1.618-2.648-1.324-3.08-3.054-.448-7.306 1.529-9.809 4.561-.798.966-2.825 1.662-4.839 1.662h-3.467l2.589-3.077c1.424-1.692 2.589-3.386 2.589-3.764s1.771-1.782 3.936-3.12c4.704-2.907 7.001-6.502 5.264-8.239-.879-.879-1.755-.841-3.625.16-2.095 1.121-2.985 1.073-5.922-.32-4.096-1.944-4.265-1.948-8.253-.212m-.437 2.427c-3.298 2.705-1.724 5.52 3.328 5.952 2.945.252 3.895-.161 5.297-2.302 1.971-3.008 1.235-4.19-3.157-5.069-2.18-.436-3.682-.046-5.468 1.419m14.704-.188c-.367.366-.667 1.321-.667 2.122 0 1.181.283 1.221 1.5.211.825-.685 1.5-1.64 1.5-2.122 0-1.036-1.384-1.161-2.333-.211m22.027 4.972c-.799.799.104 2.361 1.365 2.361.518 0 .941-.675.941-1.5 0-1.546-1.18-1.987-2.306-.861m-19.25 8.805c-.943 1.44-1.465 2.868-1.159 3.174.305.306 1.327-.623 2.271-2.062.943-1.44 1.465-2.868 1.159-3.174-.305-.306-1.327.623-2.271 2.062m36 0c-.943 1.44-1.465 2.868-1.159 3.174.305.306 1.327-.623 2.271-2.062.943-1.44 1.465-2.868 1.159-3.174-.305-.306-1.327.623-2.271 2.062M134 172.5c-.718.865-.815 1.5-.229 1.5.558 0 1.274-.675 1.591-1.5s.419-1.5.229-1.5-.906.675-1.591 1.5m-66.25 2.162c.688.278 1.813.278 2.5 0 .688-.277.125-.504-1.25-.504s-1.937.227-1.25.504m181.856 5.881c-21.619 17.611-52.684 32.894-82.106 40.394-17.764 4.528-47.911 8.278-76 9.454l-12 .502L94 229.46c19.644-1.941 41.123-5.07 55-8.012 6.325-1.341 11.838-2.44 12.25-2.443s.75-.507.75-1.122c0-.642-.893-.883-2.103-.566-3.628.948-26.67-1.318-44.887-4.416-37.71-6.412-74.443-17.168-104.266-30.53C5.378 179.967.765 178 .494 178S0 195.552 0 217.004v39.004l128.25-.254 128.25-.254.262-38.938c.144-21.416-.125-39.325-.599-39.799-.48-.48-3.375 1.188-6.557 3.78M.455 217c0 21.725.132 30.612.294 19.75.161-10.863.161-28.638 0-39.5C.587 186.387.455 195.275.455 217m117.52-36.975C116.889 181.111 116 182.45 116 183c0 1.365 3.734 5 5.136 5 .625 0-.05 1.186-1.5 2.636-3.635 3.635-3.377 6.562.864 9.796 2.178 1.661 3.502 2.178 3.506 1.369.004-.716 1.346-2.063 2.982-2.994 2.709-1.541 3.056-1.55 3.868-.101.567 1.015 1.663 1.392 3.017 1.038 1.169-.306 2.392-.124 2.719.404.352.571 1.533.345 2.908-.556 2.079-1.362 2.376-1.357 2.918.054.544 1.42.842 1.414 3.092-.061 1.37-.897 2.49-1.171 2.49-.608 0 1.335 3.302 1.321 4.642-.019.724-.724 1.432-.574 2.314.489 1.138 1.371 1.601 1.35 4.408-.195 1.725-.949 4.228-2.632 5.564-3.739l2.427-2.013-2.246 3.25c-2.153 3.117-2.166 3.25-.3 3.25 1.071 0 2.484-.648 3.142-1.441 1.294-1.559 3.543-1.119 6.28 1.231 1.405 1.206 2.018 1.248 3.25.226 1.04-.863 1.913-.943 2.769-.254 1.495 1.205 4.774.119 6.72-2.226 1.134-1.366 1.155-1.841.109-2.487-.795-.491-1.033-1.618-.619-2.924.91-2.865-1.537-2.832-3.334.045-1.22 1.954-1.449 2.004-2.291.5-1.32-2.359-3.176-2.082-7.008 1.045-2.001 1.632-2.629 1.9-1.577.671 2.144-2.503 2.209-3.386.25-3.386-.825 0-1.5.505-1.5 1.122 0 .764-.491.715-1.536-.152-1.283-1.065-1.997-.834-4.332 1.404-2.783 2.666-2.796 2.668-2.714.402.136-3.764-3.629-3.44-7.481.644-1.829 1.939-3.481 3.369-3.672 3.179-.951-.952 4.151-7.599 5.834-7.599 1.045 0 1.901-.45 1.901-1s-.417-1-.927-1c-.509 0-1.072-.715-1.25-1.59-.274-1.347-.704-1.258-2.823.584-1.375 1.196-2.501 2.474-2.503 2.84-.005 1.077-5.921 8.166-6.815 8.166-.45 0 .112-1.307 1.25-2.904 1.137-1.598 2.068-3.173 2.068-3.5 0-1.535-2.724-.292-5.82 2.654l-3.414 3.25 1.767-3.5c.972-1.925 2.825-5.179 4.117-7.23 2.751-4.366 2.827-4.77.908-4.77-.794 0-2.681 2.202-4.194 4.894-1.685 2.998-3.26 4.699-4.065 4.39-.723-.277-2.355.178-3.626 1.011-2.115 1.386-2.412 1.353-3.501-.39-.654-1.048-1.843-1.905-2.642-1.905-2.063 0-5.53 4.004-5.53 6.389 0 1.464-.299 1.712-1.102.909-1.878-1.878 1.124-6.657 4.877-7.762 1.941-.571 3.082-1.466 2.801-2.199-.261-.679.344-1.494 1.343-1.811 1-.318 2.631-1.476 3.625-2.575 2.651-2.929.736-4.177-7.011-4.569-5.5-.278-6.907-.008-8.558 1.643m1.692.642c-1.223 1.222-.687 3.252 1.112 4.215 1.425.763 2.113.371 3.454-1.965l1.674-2.917h-2.787c-1.533 0-3.087.3-3.453.667m10.633.658c-.44.729-1.652 1.64-2.693 2.024s-1.646.946-1.343 1.248c.771.772 6.736-2.436 6.736-3.623 0-1.421-1.77-1.191-2.7.351M147.5 186c-.816 1.32.38 3.192 1.569 2.457 1.215-.75 1.207-3.457-.01-3.457-.518 0-1.219.45-1.559 1m-21.845 7.829c-.91 1.006-1.655 2.659-1.655 3.674 0 1.66.251 1.609 2.5-.503 2.444-2.296 3.339-5 1.655-5-.465 0-1.59.823-2.5 1.829m9.643.397c-1.928 2.49-2.402 3.774-1.392 3.774 1.128 0 3.518-3.91 2.818-4.61-.242-.241-.883.135-1.426.836m22.656.86c-.614 1.147-.818 2.384-.453 2.748.678.678 3.499-2.566 3.499-4.025 0-1.589-1.949-.772-3.046 1.277M182 196.5c0 .825.177 1.5.393 1.5s.652-.675.969-1.5.139-1.5-.393-1.5c-.533 0-.969.675-.969 1.5m-4.971.461c-.809.512-1.211 1.191-.893 1.509s1.148-.108 1.844-.946c1.443-1.738 1.166-1.902-.951-.563"/><path fill="#1976D2" fill-opacity=".298" fill-rule="evenodd" d="M0 39.622c0 38.414.057 39.58 1.855 38.25 1.02-.755 5.332-4.004 9.582-7.222C52 39.941 98.336 26.659 172 24.623c19.143-.528 16.979-.144-16.5 2.933-18.152 1.669-48.081 6.414-55.5 8.799l-4.5 1.447 7.038.099c15.642.22 46.719 5.291 74.727 12.195 25.99 6.406 49.363 14.614 78.485 27.562.988.44 1.25-7.636 1.25-38.551V0H0zM.455 40c0 21.725.132 30.612.294 19.75.161-10.863.161-28.638 0-39.5C.587 9.387.455 18.275.455 40m112.058 31.175c-7.618 13.379-20.999 36.864-29.734 52.19s-15.706 28.042-15.489 28.258 26.955.277 59.42.135l59.028-.258-28.431-50C141.67 74 128.311 50.454 127.62 49.175c-1.179-2.184-2.098-.845-15.107 22M99.237 101.25 72.239 148.5l53.538.259c29.446.142 53.714.083 53.928-.131s-7.113-13.606-16.283-29.759S144.854 86.125 142.538 82c-11.282-20.092-15.814-28-16.048-28-.14 0-12.404 21.263-27.253 47.25m12.292-12.5C91.837 124.021 90.765 126 91.346 126c.272 0 4.617-7.425 9.654-16.5s9.305-16.5 9.484-16.5.102 1.688-.172 3.75c-.658 4.968 2.539 8.166 8.508 8.51 2.293.132 4.172.586 4.175 1.01.003.423-1.113 2.54-2.479 4.705-2.464 3.903-2.524 3.93-7.482 3.343-5.716-.677-8.938.888-6.895 3.35.821.988 3.111 1.34 7.763 1.191 3.629-.117 8.623.229 11.098.768l4.5.98-3.825 1.846c-4.96 2.394-6.885 5.424-6.49 10.221.26 3.16.861 4.087 3.454 5.326 1.726.825 3.628 2.625 4.228 4l1.089 2.5-.468-2.633c-.388-2.188.044-2.845 2.556-3.885 5.843-2.42 9.099-9.959 5.568-12.889-3.306-2.743-9.612 3.451-9.612 9.441 0 2.806-1.654 2.961-3.326.311-2.575-4.082 3.734-12.845 9.249-12.845 3.491 0 4.293-1.978.827-2.04-1.785-.031-1.432-.448 1.713-2.016 4.521-2.256 9.537-6.739 9.537-8.524 0-3.451-8.898-2.097-13.353 2.031-1.456 1.349-2.647 3.15-2.647 4.001 0 1.088-.991 1.548-3.333 1.548-1.834 0-3.6-.266-3.924-.591-.325-.325.95-2.609 2.833-5.076 1.883-2.468 3.424-4.865 3.424-5.328s1.688-1.849 3.75-3.08 5.213-3.607 7-5.278c5.603-5.239 3.31-9.781-2.94-5.824l-3.207 2.031-2.848-2.029c-4.353-3.099-9.966-3.488-14.21-.984-1.95 1.15-3.545 1.786-3.545 1.413 0-1.781 15.434-28.215 16.076-27.534.404.429 8.717 14.955 18.472 32.28s18.178 31.95 18.717 32.5.41-.125-.287-1.5c-2.472-4.881-37.08-66-37.371-66-.079 0-6.865 12.037-15.078 26.75M117 90.709c-5.178 1.904-6.744 7.956-2.777 10.734 1.222.856 4.086 1.557 6.364 1.557 3.692 0 4.437-.427 6.872-3.941 3.075-4.436 2.748-5.657-2.049-7.661-3.46-1.446-5.824-1.639-8.41-.689m18.611 2.383c-1.503 1.182-2.503 2.747-2.223 3.477.309.805-.01 1.129-.81.823-1.239-.476-3.13 2.389-2.194 3.325.868.869 6.646-2.833 8.255-5.289 2.379-3.631.48-5.096-3.028-2.336m.985 17.174c-6.314 3.613-7.72 7.556-2.2 6.171 3.278-.823 8.978-6.023 8.121-7.409-.883-1.429-1.477-1.304-5.921 1.238m-28.871 5.343c-1.546 1.545-.584 2.391 2.716 2.391 1.893 0 3.719-.45 4.059-1s.029-1.006-.691-1.014c-.72-.007-2.22-.258-3.334-.558-1.114-.299-2.352-.218-2.75.181m23.058 12.141c-3.9 4.472-4.918 9.25-1.97 9.25 2.704 0 7.187-5.18 7.187-8.305 0-3.195-2.81-3.704-5.217-.945M88 131c-1.122 2.2-1.816 4-1.541 4s1.419-1.8 2.541-4 1.816-4 1.541-4-1.419 1.8-2.541 4m80.137 6.198c1.85 3.684 3.734 6.722 4.186 6.75.453.029-.627-2.536-2.4-5.698-4.633-8.266-5.732-8.913-1.786-1.052M83 140c-1.122 2.2-1.694 3.995-1.27 3.99.423-.006 1.524-1.806 2.446-4 2.163-5.15 1.454-5.144-1.176.01m-8.75 15.689c.963.252 2.537.252 3.5 0 .963-.251.175-.457-1.75-.457s-2.713.206-1.75.457M70.2 157.2c-1.582 1.582-1.536 6.276.075 7.613.701.582 2.614 1.275 4.25 1.54s3.113.52 3.282.565c.168.045-.507 1.469-1.5 3.164-1.608 2.741-2.193 3.021-5.307 2.531-3.848-.604-6.643.537-5.569 2.275 1.081 1.749 2.578 1.298 1.864-.562-.495-1.29-.24-1.519 1.113-1 .966.371 2.281.681 2.924.689.873.012.878.201.019.75-.632.404 1.392.826 4.498.938 3.6.129 6.462-.332 7.899-1.273 1.989-1.304 2.252-1.302 2.252.016 0 2.006 6.869 1.83 9.25-.237 1.574-1.366 1.75-1.352 1.75.136 0 1.957 2.055 2.169 3.925.405 1.06-1 1.417-1 1.783 0 .861 2.346 4.186 1.255 6.86-2.25 3.277-4.297 5.418-4.693 2.391-.442-2.834 3.979-1.486 5.326 1.54 1.539 2.275-2.847 2.366-5.597.186-5.597-.605 0-2.807 1.666-4.893 3.703-3.894 3.802-5.036 3.518-2.19-.545 2.692-3.844.585-3.747-3.413.157-2.075 2.027-4.081 3.685-4.457 3.685s.54-2.025 2.035-4.5c1.713-2.835 3.461-4.529 4.726-4.579 1.104-.043 1.445-.306.757-.583-.687-.278-1.25-1.212-1.25-2.076 0-1.35-.283-1.316-2 .238-1.1.995-2 2.324-2 2.952 0 1.262-7.126 8.548-8.36 8.548-.427 0 .154-1.307 1.292-2.904 2.731-3.835 2.652-4.058-1.334-3.744-2.126.168-4.763 1.464-7.035 3.458-3.707 3.255-5.961 3.857-8.477 2.264-1.158-.733-.929-1.501 1.259-4.234 3.619-4.52 3.68-4.578 7.578-7.113 1.883-1.225 3.614-2.809 3.847-3.52s-.81-.148-2.318 1.25C84.567 163.13 83 163.673 83 162c0-.55.45-1 1-1s1-.513 1-1.14.787-1.776 1.75-2.555c1.576-1.275 1.525-1.306-.521-.314-1.249.606-2.781.786-3.404.401-.698-.431-.858-.254-.416.46 1.19 1.925-3.226 7.148-6.043 7.148-5.415 0-8.424-4.542-5.166-7.8.66-.66.975-1.2.7-1.2s-1.04.54-1.7 1.2M109 163c0 .55.45 1 1 1s1-.45 1-1-.45-1-1-1-1 .45-1 1m24.5 8c-4.558 4.668-6.547 5.279-3.568 1.096 2.74-3.848 2.658-4.058-1.448-3.735-2.348.185-4.605 1.334-6.797 3.458-4.094 3.968-5.094 4.052-2.909.246 1.853-3.23 1.271-4.682-1.457-3.635-1.384.531-1.478.855-.436 1.499.93.575.996 1.026.222 1.505-1.474.911-1.422 4.566.064 4.566.644 0 1.994-.745 3-1.655 1.595-1.443 1.829-1.458 1.829-.117 0 1.24 1.352 1.532 6.977 1.509 5.734-.024 7.294-.391 8.75-2.055.975-1.114 1.15-1.66.389-1.212-1.091.642-1.287.148-.924-2.328.254-1.728.406-3.142.338-3.142s-1.882 1.8-4.03 4m-45 1c-1.301 2.516-1.324 3-.141 3 .776 0 2.138-1.109 3.026-2.465 1.991-3.038 2.011-3.535.141-3.535-.811 0-2.173 1.35-3.026 3m36 0c-1.301 2.516-1.324 3-.141 3 .776 0 2.138-1.109 3.026-2.465 1.991-3.038 2.011-3.535.141-3.535-.811 0-2.173 1.35-3.026 3m9.683-.783c-1.41 1.41-1.567 3.783-.25 3.783.982 0 2.541-3.859 1.842-4.559-.225-.224-.941.125-1.592.776M247 183.125c-23.418 18.614-56.32 33.733-87.729 40.312-20.015 4.193-55.038 7.646-74.771 7.373-7.15-.099-10.525-.325-7.5-.503 23.254-1.366 64.242-6.927 78.5-10.651l5-1.306-11-.695c-40.161-2.535-97.381-16.648-135.79-33.491L0 178.152v76.52l70.25.581c79.957.661 184.112.259 185.691-.717 1.651-1.02 1.462-77.562-.191-77.454-.687.045-4.625 2.764-8.75 6.043M.455 216.5c0 21.45.132 30.083.294 19.184s.161-28.449-.001-39C.587 186.133.454 195.05.455 216.5m118.768-36.943c-3.849 2.695-2.268 7.443 2.477 7.443 1.265 0 2.3.45 2.3 1s-.649 1-1.443 1c-1.908 0-4.557 3.875-4.557 6.666 0 2.57 3.547 5.445 5.699 4.619 1.002-.384 1.114-.783.351-1.254-.625-.386-.815-1.538-.432-2.611.988-2.766 3.505-5.462 4.516-4.837 1.408.87.994 3.608-.884 5.838-1.748 2.077-1.748 2.077.5.174 2.505-2.121 3.002-6.093.865-6.913-2.147-.823-5.386 1.998-6.117 5.328-.76 3.458-2.498 3.062-2.498-.569 0-3.185 3.322-6.441 6.571-6.441 2.372 0 2.446-.126.95-1.621-2.005-2.006-1.539-4.927.757-4.742.935.075 1.452-.265 1.148-.757-.644-1.041 2.362-2.426 3.278-1.51.339.34-.243 1.633-1.293 2.874L129.5 185.5l2.25-1.905c3.608-3.054 2.871-4.531-2.146-4.298-2.417.111-4.23.477-4.027.813.202.335-.183 1.794-.855 3.242-1.305 2.812-3.566 3.404-5.522 1.448-2.036-2.036-1.342-3.835 2.05-5.309 1.787-.777 2.563-1.43 1.723-1.452-.841-.021-2.528.662-3.75 1.518m22.478 7.546c-1.822 3.303-3.283 4.888-4.186 4.541-2.146-.823-6.674 3.245-6.319 5.679.238 1.635 1.106 2.142 3.982 2.323 2.239.141 4.15-.336 4.882-1.218 1.04-1.254 1.38-1.212 2.511.311 1.232 1.66 1.406 1.663 3.039.054 1.627-1.603 1.808-1.604 2.971-.013 1.162 1.589 1.357 1.586 3.157-.043 2.356-2.132 3.262-2.198 3.262-.237 0 1.803 1.064 1.884 4.453.339 1.805-.822 2.547-1.939 2.547-3.833 0-1.47-.284-2.957-.631-3.304-.907-.907-4.358 1.055-8.119 4.614-1.787 1.692-3.25 2.704-3.25 2.248 0-.909 4.018-7.763 5.02-8.564 1.089-.87 1.952-4 1.104-4-1.088 0-4.124 3.406-4.124 4.626 0 1.145-7.229 8.374-8.374 8.374-.434 0 .184-1.575 1.374-3.5 2.769-4.48 1.349-4.487-2.985-.015-1.858 1.917-3.574 3.289-3.814 3.049-.24-.239 1.417-3.811 3.682-7.938 4.297-7.829 4.601-8.605 3.367-8.582-.412.008-2.01 2.298-3.549 5.089M148 187c0 .55.45 1 1 1s1-.45 1-1-.45-1-1-1-1 .45-1 1m33.134 8.085c-1.851 2.153-3.989 3.915-4.75 3.915-2.271 0-1.568-1.388 1.622-3.203 2.902-1.652 4.029-3.797 1.994-3.797-.55 0-1 .627-1 1.393s-.675 1.652-1.5 1.969c-1.801.691-1.966-.496-.3-2.162.707-.707.778-1.2.174-1.2-.564 0-2.011 1.049-3.215 2.331l-2.19 2.331 2.074 1.877c1.588 1.437 2.469 1.628 3.76.813 1.19-.75 2.187-.751 3.386-.002 1.301.813 2.186.621 3.779-.821 1.454-1.316 1.728-2.099.912-2.603-.642-.397-.919-1.667-.617-2.824.785-3.003-.285-2.489-4.129 1.983m-46.306-1.359c-1.888 2.197-3.038 5.274-1.971 5.274.437 0 1.857-1.131 3.155-2.513 1.591-1.693 2.032-2.843 1.351-3.524-.68-.68-1.508-.431-2.535.763m23.414.244c-2.25 2.416-2.976 5.03-1.397 5.03 1.606 0 4.329-3.857 3.985-5.644-.308-1.601-.584-1.536-2.588.614m9.078-1.317c.359.36-.277 2.16-1.415 4-2.064 3.34-1.264 4.689 1.095 1.847.685-.825 1.752-1.504 2.372-1.508.621-.004 1.648-1.129 2.284-2.5s.786-2.492.333-2.492c-.452 0-1.085.563-1.406 1.25-.466 1-.7 1-1.166 0-.321-.687-1.071-1.25-1.667-1.25s-.789.294-.43.653m-3.356 2.511c-1.145 2.233-1.118 2.26.61.61.994-.95 1.533-2.001 1.197-2.336s-1.148.442-1.807 1.726m18.021.354c-.915 1.102-.986 1.881-.242 2.625s1.263.413 1.749-1.118c.885-2.789.16-3.515-1.507-1.507"/><path fill="#1976D2" fill-opacity=".962" fill-rule="evenodd" d="M182.5 25.657c-21.895 1.017-49.543 4.322-71.377 8.533-11.827 2.281-12.676 3.601-2.407 3.74 19.367.261 70.471 10.901 100.912 21.011a9091 9091 0 0 0 16.967 5.625c1.602.524 1.666.438.405-.537-1.212-.937-1.02-1.028 1-.474 3.565.979 6.249 2.719 3 1.945-2.159-.514-2.254-.442-.698.531 1.285.803 2.173.82 3.092.057.71-.589 1.487-.873 1.728-.632s2 .703 3.908 1.027c1.909.324 4.145.789 4.97 1.034.825.244 3.267.668 5.427.941s4.244 1.009 4.631 1.636c.85 1.375 2.25-24.192 1.777-32.464-.401-7.027.059-6.766-15.835-8.991-22.591-3.163-37.241-3.923-57.5-2.982m-67.993 65.332c-.35.566.051.734.941.393 1.732-.665 2.049-1.382.611-1.382-.518 0-1.216.445-1.552.989M127 92.119c1.925 1.162 3.658 2.255 3.85 2.43.844.766-6.449 8.563-8.487 9.075-3.941.989-9.404-1.504-10.918-4.983-1.193-2.742-1.372-2.849-1.406-.846-.067 3.936 4.205 7.205 9.416 7.205 2.5 0 4.53.338 4.512.75s-1.282 2.55-2.808 4.75c-2.709 3.907-2.913 4-8.717 4-5.189 0-5.942.243-5.942 1.917 0 1.054.574 2.033 1.275 2.175s.814.029.25-.25c-.564-.28-1.025-1.205-1.025-2.056 0-1.224.768-1.423 3.669-.952 2.018.327 3.931.949 4.25 1.381.609.823 1.563 1.023 9.352 1.966 5.846.708 6.646 1.697 2.696 3.333-3.942 1.632-7.967 6.497-7.967 9.628 0 3.555 1.757 6.358 3.985 6.358 1.054 0 2.374.787 2.935 1.75.798 1.371 1.026.738 1.05-2.923.023-3.54.658-5.42 2.619-7.75 2.566-3.05 5.774-4.025 6.753-2.052.279.564.394.451.255-.25-.14-.701-1.275-1.425-2.523-1.607-3.227-.473-6.991 3.458-7.728 8.071-.758 4.739-3.655 4.914-4.188.252-.679-5.949 5.775-13.106 10.666-11.827 1.359.356 2.176.11 2.176-.654 0-.673-.661-.97-1.468-.661-.807.31-1.718.159-2.024-.335-.305-.495 1.368-1.76 3.718-2.812 2.351-1.051 5.171-2.989 6.267-4.307l1.993-2.395-2.507 2.202c-3.122 2.744-9.697 5.563-10.384 4.452-.784-1.268 2.276-5.104 5.772-7.236 3.342-2.038 1.98-2.68-1.683-.793-3.677 1.894-6.684 5.122-6.684 7.174 0 1.652-.479 1.855-3.125 1.326-1.719-.344-3.519-.625-4-.625-1.689 0-.851-2.674 1.545-4.924 1.33-1.251 2.916-3.473 3.523-4.939.627-1.513 3.003-3.673 5.493-4.994 2.414-1.281 5.441-3.475 6.727-4.876 1.642-1.79.903-1.465-2.49 1.093-6.255 4.717-7.935 4.866-5.596.497.592-1.107 1.694-1.775 2.449-1.485.929.356 1.177.016.767-1.051-.374-.974.315-2.339 1.801-3.568l2.406-1.99-2.796 1.671c-2.655 1.588-2.963 1.569-6.118-.381-1.827-1.129-3.719-2.051-4.204-2.049s.693.954 2.618 2.115m12.1-.414c.729 1.212 1.54 1.989 1.803 1.726s-.333-1.255-1.324-2.205c-1.722-1.649-1.744-1.628-.479.479m-4.364 41.551-1.765 3.244 2.015-2.361c1.714-2.009 2.63-4.155 1.764-4.133-.137.004-1.044 1.466-2.014 3.25M130 137c-.901.582-1.025.975-.309.985.655.008 1.469-.435 1.809-.985.767-1.242.421-1.242-1.5 0M0 205.5c0 10.725.337 19.502.75 19.505s6.825.886 14.25 1.962 19.596 2.405 27.046 2.952c27.299 2.007 80.808-2.821 108.954-9.831l7.5-1.868-7.5-.13c-22.361-.386-71.482-10.325-104.5-21.145-7.15-2.343-14.35-4.397-16-4.565-3.729-.38-6.551-.933-8.5-1.667-1.693-.637-13.32-2.826-16.743-3.152-1.233-.117-2.546-.516-2.916-.887C.37 184.703 0 187.676 0 205.5M22 189c.825.533 1.95.969 2.5.969s.325-.436-.5-.969-1.95-.969-2.5-.969-.325.436.5.969m5 2c.825.533 1.95.969 2.5.969s.325-.436-.5-.969-1.95-.969-2.5-.969-.325.436.5.969"/></svg>